<svg width="24" height="40" viewBox="0 0 24 40" fill="none" xmlns="http://www.w3.org/2000/svg">
<g id="logo_pineapple">
<path id="Logo Icon" d="M22.9393 35L19 38.9393L13.0607 33L17 29.0607L22.9393 35ZM15.9393 28L12 31.9393L8.06066 28L12 24.0607L15.9393 28ZM7 29.0607L10.9393 33L5 38.9393L1.06066 35L7 29.0607ZM10.9393 23L7 26.9393L1.06066 21L5 17.0607L10.9393 23ZM0.75 22.8107L5.93934 28L0.75 33.1893V22.8107ZM12 21.9393L6.81066 16.75H17.1893L12 21.9393ZM13.0607 23L19 17.0607L22.9393 21L17 26.9393L13.0607 23ZM18.0607 28L23.25 22.8107V33.1893L18.0607 28ZM6.81066 39.25L12 34.0607L17.1893 39.25H6.81066ZM5.35128 13.25L1.86956 9.07194L5.8767 9.7398L6.88736 9.90824L6.74246 8.89393L6.06066 4.12132L9.46967 7.53033L10.371 8.43163L10.7211 7.20604L12 2.73004L13.2789 7.20604L13.629 8.43163L14.5303 7.53033L17.9393 4.12132L17.2575 8.89393L17.1126 9.90824L18.1233 9.7398L22.1304 9.07194L18.6487 13.25H5.35128Z" stroke="#4066A5" stroke-width="1.5"/>
</g>
</svg>
